<svg width="64" height="64" viewBox="0 0 64 64" fill="none" xmlns="http://www.w3.org/2000/svg">
<g id="vuesax/bulk/calendar-tick">
<g id="vuesax/bulk/calendar-tick_2">
<g id="calendar-tick">
<path id="Vector" d="M44.6667 9.49337V5.33337C44.6667 4.24004 43.76 3.33337 42.6667 3.33337C41.5733 3.33337 40.6667 4.24004 40.6667 5.33337V9.33337H23.3333V5.33337C23.3333 4.24004 22.4267 3.33337 21.3333 3.33337C20.24 3.33337 19.3333 4.24004 19.3333 5.33337V9.49337C12.1333 10.16 8.64001 14.4534 8.10667 20.8267C8.05334 21.6 8.69334 22.24 9.44001 22.24H54.56C55.3333 22.24 55.9733 21.5734 55.8933 20.8267C55.36 14.4534 51.8667 10.16 44.6667 9.49337Z" fill="#B8B8FF"/>
<path id="Vector_2" opacity="0.4" d="M56 28.9066V33.5466C56 35.1733 54.56 36.4266 52.96 36.16C52.2133 36.0533 51.44 35.9733 50.6667 35.9733C42.5867 35.9733 36 42.5599 36 50.6399C36 51.8666 36.48 53.5733 36.9867 55.12C37.5733 56.8533 36.2933 58.6399 34.4533 58.6399H21.3333C12 58.6399 8 53.3066 8 45.3066V28.8799C8 27.4133 9.2 26.2133 10.6667 26.2133H53.3333C54.8 26.2399 56 27.4399 56 28.9066Z" fill="#B8B8FF"/>
<path id="Vector_3" d="M50.6667 40C44.7733 40 40 44.7733 40 50.6667C40 52.6667 40.56 54.56 41.5467 56.16C43.3867 59.2533 46.7733 61.3333 50.6667 61.3333C54.56 61.3333 57.9467 59.2533 59.7867 56.16C60.7733 54.56 61.3333 52.6667 61.3333 50.6667C61.3333 44.7733 56.56 40 50.6667 40ZM56.1867 49.52L50.5067 54.7734C50.1333 55.12 49.6267 55.3066 49.1467 55.3066C48.64 55.3066 48.1333 55.12 47.7333 54.72L45.0933 52.08C44.32 51.3067 44.32 50.0267 45.0933 49.2533C45.8667 48.48 47.1467 48.48 47.92 49.2533L49.2 50.5334L53.4667 46.5867C54.2667 45.84 55.5467 45.8934 56.2933 46.6934C57.04 47.4934 56.9867 48.7467 56.1867 49.52Z" fill="#B8B8FF"/>
<path id="Vector_4" d="M22.6667 40C21.9733 40 21.28 39.7067 20.7733 39.2267C20.2933 38.72 20 38.0267 20 37.3333C20 36.64 20.2933 35.9467 20.7733 35.44C21.3867 34.8267 22.32 34.5333 23.2 34.72C23.36 34.7466 23.52 34.8 23.68 34.88C23.84 34.9333 24 35.0134 24.16 35.12C24.2933 35.2267 24.4267 35.3334 24.56 35.44C25.04 35.9467 25.3333 36.64 25.3333 37.3333C25.3333 38.0267 25.04 38.72 24.56 39.2267C24.4267 39.3333 24.2933 39.44 24.16 39.5466C24 39.6533 23.84 39.7334 23.68 39.7867C23.52 39.8667 23.36 39.92 23.2 39.9467C23.0133 39.9734 22.8267 40 22.6667 40Z" fill="#B8B8FF"/>
<path id="Vector_5" d="M32 40.0001C31.3067 40.0001 30.6133 39.7067 30.1067 39.2267C29.6267 38.72 29.3333 38.0267 29.3333 37.3334C29.3333 36.6401 29.6267 35.9467 30.1067 35.4401C31.12 34.4534 32.9067 34.4534 33.8933 35.4401C34.3733 35.9467 34.6667 36.6401 34.6667 37.3334C34.6667 38.0267 34.3733 38.72 33.8933 39.2267C33.3867 39.7067 32.6933 40.0001 32 40.0001Z" fill="#B8B8FF"/>
<path id="Vector_6" d="M22.6667 49.3333C21.9733 49.3333 21.28 49.04 20.7733 48.56C20.2933 48.0533 20 47.36 20 46.6667C20 45.9733 20.2933 45.28 20.7733 44.7733C21.04 44.5333 21.3067 44.3466 21.6533 44.2133C22.64 43.7866 23.8133 44.0267 24.56 44.7733C25.04 45.28 25.3333 45.9733 25.3333 46.6667C25.3333 47.36 25.04 48.0533 24.56 48.56C24.0533 49.04 23.36 49.3333 22.6667 49.3333Z" fill="#B8B8FF"/>
</g>
</g>
</g>
</svg>
