<svg width="64" height="64" viewBox="0 0 64 64" fill="none" xmlns="http://www.w3.org/2000/svg">
<g id="vuesax/bulk/note-2">
<g id="vuesax/bulk/note-2_2">
<g id="note-2">
<path id="Vector" opacity="0.4" d="M57.76 27.84L55.1467 38.9866C52.9067 48.6133 48.48 52.5066 40.16 51.7066C38.8267 51.6 37.3867 51.36 35.84 50.9866L31.36 49.92C20.24 47.28 16.8 41.7866 19.4133 30.64L22.0267 19.4666C22.56 17.2 23.2 15.2266 24 13.6C27.12 7.14665 32.4267 5.41331 41.3333 7.51998L45.7867 8.55998C56.96 11.1733 60.3733 16.6933 57.76 27.84Z" fill="#B8B8FF"/>
<path id="Vector_2" d="M40.16 51.7066C38.5067 52.8266 36.4267 53.76 33.8933 54.5866L29.68 55.9733C19.0933 59.3866 13.52 56.5333 10.08 45.9466L6.66666 35.4133C3.25333 24.8266 6.07999 19.2266 16.6667 15.8133L20.88 14.4266C21.9733 14.08 23.0133 13.7866 24 13.6C23.2 15.2266 22.56 17.2 22.0267 19.4666L19.4133 30.64C16.8 41.7866 20.24 47.28 31.36 49.92L35.84 50.9866C37.3867 51.36 38.8267 51.6 40.16 51.7066Z" fill="#B8B8FF"/>
<path id="Vector_3" d="M46.64 28.0267C46.48 28.0267 46.32 28 46.1333 27.9733L33.2 24.6933C32.1333 24.4267 31.4933 23.3333 31.76 22.2667C32.0267 21.2 33.12 20.56 34.1867 20.8267L47.12 24.1067C48.1867 24.3733 48.8267 25.4667 48.56 26.5333C48.3467 27.4133 47.52 28.0267 46.64 28.0267Z" fill="#B8B8FF"/>
<path id="Vector_4" d="M38.8267 37.04C38.6667 37.04 38.5067 37.0133 38.32 36.9866L30.56 35.0133C29.4933 34.7466 28.8533 33.6533 29.12 32.5866C29.3867 31.52 30.48 30.88 31.5467 31.1466L39.3067 33.12C40.3733 33.3866 41.0133 34.48 40.7467 35.5466C40.5333 36.4533 39.7333 37.04 38.8267 37.04Z" fill="#B8B8FF"/>
</g>
</g>
</g>
</svg>
