<svg width="64" height="64" viewBox="0 0 64 64" fill="none" xmlns="http://www.w3.org/2000/svg">
<g id="vuesax/bulk/card-tick">
<g id="vuesax/bulk/card-tick_2">
<g id="card-tick">
<path id="Vector" opacity="0.4" d="M58.6667 20.72V24H5.33334V20.1067C5.33334 14 10.2933 9.06665 16.4 9.06665H42.6667V15.92C42.6667 19.3067 44.6933 21.3333 48.08 21.3333H55.92C56.9867 21.3333 57.8933 21.1467 58.6667 20.72Z" fill="#B8B8FF"/>
<path id="Vector_2" d="M5.33334 24V43.8933C5.33334 50 10.2933 54.9333 16.4 54.9333H47.6C53.7067 54.9333 58.6667 50 58.6667 43.8933V24H5.33334ZM21.3333 46H16C14.9067 46 14 45.0933 14 44C14 42.9067 14.9067 42 16 42H21.3333C22.4267 42 23.3333 42.9067 23.3333 44C23.3333 45.0933 22.4267 46 21.3333 46ZM38.6667 46H28C26.9067 46 26 45.0933 26 44C26 42.9067 26.9067 42 28 42H38.6667C39.76 42 40.6667 42.9067 40.6667 44C40.6667 45.0933 39.76 46 38.6667 46Z" fill="#B8B8FF"/>
<path id="Vector_3" d="M55.92 2.66663H48.08C44.6933 2.66663 42.6667 4.69329 42.6667 8.07996V15.92C42.6667 19.3066 44.6933 21.3333 48.08 21.3333H55.92C59.3067 21.3333 61.3333 19.3066 61.3333 15.92V8.07996C61.3333 4.69329 59.3067 2.66663 55.92 2.66663ZM57.68 9.19996L51.36 16.5866C51.12 16.88 50.7467 17.0666 50.3733 17.0666C50.3467 17.0666 50.3467 17.0666 50.32 17.0666C49.9467 17.0666 49.6 16.9333 49.3333 16.6666L46.4 13.7866C45.8667 13.2533 45.8667 12.3733 46.4 11.84C46.9333 11.3066 47.8133 11.28 48.3467 11.84L50.2133 13.68L55.5467 7.43996C56.0533 6.85329 56.9067 6.79996 57.4933 7.27996C58.1067 7.75996 58.16 8.63996 57.68 9.19996Z" fill="#B8B8FF"/>
</g>
</g>
</g>
</svg>
