<svg width="64" height="64" viewBox="0 0 64 64" fill="none" xmlns="http://www.w3.org/2000/svg">
<g id="vuesax/bulk/shield-tick">
<g id="vuesax/bulk/shield-tick_2">
<g id="shield-tick">
<path id="Vector" opacity="0.4" d="M29.2267 5.49338L14.56 10.9867C11.76 12.0534 9.46667 15.3601 9.46667 18.3734V39.9734C9.46667 42.1334 10.88 44.9867 12.6133 46.2667L27.28 57.2267C29.8667 59.1734 34.1067 59.1734 36.6933 57.2267L51.36 46.2667C53.0933 44.9601 54.5067 42.1334 54.5067 39.9734V18.3734C54.5067 15.3867 52.2133 12.0534 49.4133 11.0134L34.7467 5.52005C33.2533 4.93338 30.7467 4.93338 29.2267 5.49338Z" fill="#B8B8FF"/>
<path id="Vector_2" d="M28.4267 37.9467C27.92 37.9467 27.4133 37.76 27.0133 37.36L22.72 33.0667C21.9467 32.2934 21.9467 31.0134 22.72 30.24C23.4933 29.4667 24.7733 29.4667 25.5467 30.24L28.4267 33.12L38.48 23.0667C39.2533 22.2934 40.5333 22.2934 41.3067 23.0667C42.08 23.84 42.08 25.12 41.3067 25.8934L29.84 37.36C29.44 37.76 28.9333 37.9467 28.4267 37.9467Z" fill="#B8B8FF"/>
</g>
</g>
</g>
</svg>
